<svg aria-hidden="true" style="width:0;height:0;position:absolute;overflow:hidden" xmlns="http://www.w3.org/2000/svg"><defs><symbol id="ic_facebook" viewBox="0 0 32 32"><path d="M13.333 0H32v18.667c0 6.77-5.045 12.363-11.582 13.219l.037-10.837h3.538l.53-4.265h-4.068V14.06c0-1.237.331-2.078 2.034-2.078h2.177V8.171c-.378-.053-1.666-.17-3.17-.17-3.136 0-5.282 1.989-5.282 5.639v3.145h-3.548v4.269h3.548V32H0V13.333C0 5.969 5.969 0 13.333 0z"/></symbol><symbol id="ic_gitHub" viewBox="0 0 32 32"><path d="M10.94 31.969c.8.144 1.1-.349 1.1-.779 0-.39-.02-1.681-.02-3.055-4.02.759-5.06-1.005-5.38-1.928-.18-.472-.96-1.928-1.64-2.317-.56-.308-1.36-1.066-.02-1.087 1.26-.02 2.16 1.189 2.46 1.681 1.44 2.481 3.74 1.784 4.66 1.353.14-1.066.56-1.784 1.02-2.194-3.56-.41-7.28-1.825-7.28-8.1 0-1.784.62-3.26 1.64-4.409-.16-.41-.72-2.092.16-4.347 0 0 1.34-.431 4.4 1.681 1.28-.369 2.64-.554 4-.554s2.72.185 4 .554c3.06-2.133 4.4-1.681 4.4-1.681.88 2.256.32 3.937.16 4.347 1.02 1.148 1.64 2.604 1.64 4.409 0 6.295-3.74 7.69-7.3 8.1.58.513 1.08 1.497 1.08 3.035 0 2.194-.02 3.958-.02 4.511 0 .431.3.943 1.1.779h.233C27.224 31.968 32 27.192 32 21.301V-.001H10.667C4.776-.001 0 4.775 0 10.666v21.302h10.94z"/></symbol><symbol id="ic_linkedin" viewBox="0 0 32 32"><path d="M0 10.667C0 4.776 4.775 0 10.667 0H32v21.333C32 27.224 27.225 32 21.333 32H0V10.667zm16.832 2.167h-3.61v12.775h3.888V19.42c0-2.075.764-3.394 2.599-3.394 1.324 0 1.845 1.225 1.845 3.394v6.189h3.887v-7.057c0-3.809-.91-5.886-4.751-5.886-2.004 0-3.338.939-3.858 1.981v-1.813zm-6.389 12.609V12.666H6.556v12.777h3.889zm.384-15.97a2.502 2.502 0 0 0-4.075-2.705l.001-.001a2.5 2.5 0 1 0 4.069 2.723l.006-.017z"/></symbol><symbol id="ic_arrow_drop" viewBox="0 0 32 32"><path fill="#939393" style="fill:var(--color1,#939393)" d="M9.333 13.333 16 20l6.667-6.667H9.334z"/></symbol><symbol id="ic_location" viewBox="0 0 32 32"><path fill="#fff" style="fill:var(--color2,#fff)" d="M16 2.667A9.326 9.326 0 0 0 6.667 12C6.667 19 16 29.333 16 29.333S25.333 19 25.333 12A9.326 9.326 0 0 0 16 2.667zm0 12.666a3.333 3.333 0 1 1 0-6.666 3.333 3.333 0 1 1 0 6.666z"/></symbol><symbol id="ic_search" viewBox="0 0 32 32"><path fill="#939393" style="fill:var(--color1,#939393)" d="M20.667 18.667h-1.053l-.373-.36a8.582 8.582 0 0 0 2.093-5.634v-.006a8.667 8.667 0 1 0-8.667 8.667 8.63 8.63 0 0 0 5.64-2.093l.36.373v1.053l6.667 6.653 1.987-1.987-6.653-6.667zm-8 0c-3.32 0-6-2.68-6-6s2.68-6 6-6 6 2.68 6 6-2.68 6-6 6z"/></symbol><symbol id="ic_close" viewBox="0 0 32 32"><path d="m25.333 8.547-1.88-1.88L16 14.12 8.547 6.667l-1.88 1.88L14.12 16l-7.453 7.453 1.88 1.88L16 17.88l7.453 7.453 1.88-1.88L17.88 16z"/></symbol><symbol id="ic_ticket" viewBox="0 0 46 32"><path d="M5.155 0H0v30.933h5.155V0zm12.968 0h-5.157v30.933h5.157V0zm7.811 0h-5.155v30.933h5.155V0zM46.4 0h-7.656v30.933H46.4V0zM10.31 0H7.811v30.933h2.499V0zm20.623 0h-2.499v30.933h2.499V0zm5.155 0h-2.499v30.933h2.501V0z"/></symbol><symbol id="icon-location2" viewBox="0 0 32 32"><path d="M16 0C10.477 0 6 4.477 6 10c0 10 10 22 10 22s10-12 10-22c0-5.523-4.477-10-10-10zm0 16.125a6.125 6.125 0 1 1 0-12.25 6.125 6.125 0 0 1 0 12.25zM12.125 10a3.875 3.875 0 1 1 7.75 0 3.875 3.875 0 0 1-7.75 0z"/></symbol></defs></svg>