<svg aria-hidden="true" style="position: absolute; width: 0; height: 0; overflow: hidden;" version="1.1" xmlns="http://www.w3.org/2000/svg" xmlns:xlink="http://www.w3.org/1999/xlink">
<defs>
<symbol id="ic_facebook" viewBox="0 0 32 32">
<path d="M13.333 0h18.667v18.667c0 6.77-5.045 12.363-11.582 13.219l0.037-10.837h3.538l0.53-4.265h-4.068v-2.724c0-1.237 0.331-2.078 2.034-2.078h2.177v-3.811c-0.378-0.053-1.666-0.17-3.17-0.17-3.136 0-5.282 1.989-5.282 5.639v3.145h-3.548v4.269h3.548v10.946h-16.214v-18.667c0-7.364 5.969-13.333 13.333-13.333z"></path>
</symbol>
<symbol id="ic_gitHub" viewBox="0 0 32 32">
<path d="M10.94 31.969c0.8 0.144 1.1-0.349 1.1-0.779 0-0.39-0.020-1.681-0.020-3.055-4.020 0.759-5.060-1.005-5.38-1.928-0.18-0.472-0.96-1.928-1.64-2.317-0.56-0.308-1.36-1.066-0.020-1.087 1.26-0.020 2.16 1.189 2.46 1.681 1.44 2.481 3.74 1.784 4.66 1.353 0.14-1.066 0.56-1.784 1.020-2.194-3.56-0.41-7.28-1.825-7.28-8.1 0-1.784 0.62-3.26 1.64-4.409-0.16-0.41-0.72-2.092 0.16-4.347 0 0 1.34-0.431 4.4 1.681 1.28-0.369 2.64-0.554 4-0.554s2.72 0.185 4 0.554c3.060-2.133 4.4-1.681 4.4-1.681 0.88 2.256 0.32 3.937 0.16 4.347 1.020 1.148 1.64 2.604 1.64 4.409 0 6.295-3.74 7.69-7.3 8.1 0.58 0.513 1.080 1.497 1.080 3.035 0 2.194-0.020 3.958-0.020 4.511 0 0.431 0.3 0.943 1.1 0.779h0.233c5.891 0 10.667-4.776 10.667-10.667v-21.302h-21.333c-5.891 0-10.667 4.776-10.667 10.667v21.302h10.94z"></path>
</symbol>
<symbol id="ic_linkedin" viewBox="0 0 32 32">
<path d="M0 10.667c0-5.891 4.775-10.667 10.667-10.667h21.333v21.333c0 5.891-4.775 10.667-10.667 10.667h-21.333v-21.333zM16.832 12.834h-3.61v12.775h3.888v-6.189c0-2.075 0.764-3.394 2.599-3.394 1.324 0 1.845 1.225 1.845 3.394v6.189h3.887v-7.057c0-3.809-0.91-5.886-4.751-5.886-2.004 0-3.338 0.939-3.858 1.981v-1.813zM10.443 25.443v-12.777h-3.887v12.777h3.889zM10.827 9.473c0.109-0.27 0.172-0.584 0.172-0.912 0-1.382-1.12-2.502-2.502-2.502-0.679 0-1.294 0.27-1.745 0.709l0.001-0.001c-0.463 0.454-0.75 1.086-0.75 1.786 0 1.381 1.119 2.5 2.5 2.5 1.049 0 1.948-0.647 2.319-1.563l0.006-0.017z"></path>
</symbol>
<symbol id="ic_arrow_drop" viewBox="0 0 32 32">
<path fill="#939393" style="fill: var(--color1, #939393)" d="M9.333 13.333l6.667 6.667 6.667-6.667h-13.333z"></path>
</symbol>
<symbol id="ic_location" viewBox="0 0 32 32">
<path fill="#fff" style="fill: var(--color2, #fff)" d="M16 2.667c-5.16 0-9.333 4.173-9.333 9.333 0 7 9.333 17.333 9.333 17.333s9.333-10.333 9.333-17.333c0-5.16-4.173-9.333-9.333-9.333zM16 15.333c-1.841 0-3.333-1.492-3.333-3.333s1.492-3.333 3.333-3.333v0c1.841 0 3.333 1.492 3.333 3.333s-1.492 3.333-3.333 3.333v0z"></path>
</symbol>
<symbol id="ic_search" viewBox="0 0 32 32">
<path fill="#939393" style="fill: var(--color1, #939393)" d="M20.667 18.667h-1.053l-0.373-0.36c1.301-1.502 2.093-3.475 2.093-5.634 0-0.002 0-0.004 0-0.006v0c0-4.786-3.88-8.667-8.667-8.667s-8.667 3.88-8.667 8.667c0 4.786 3.88 8.667 8.667 8.667v0c2.147 0 4.12-0.787 5.64-2.093l0.36 0.373v1.053l6.667 6.653 1.987-1.987-6.653-6.667zM12.667 18.667c-3.32 0-6-2.68-6-6s2.68-6 6-6 6 2.68 6 6-2.68 6-6 6z"></path>
</symbol>
<symbol id="ic_close" viewBox="0 0 32 32">
<path d="M25.333 8.547l-1.88-1.88-7.453 7.453-7.453-7.453-1.88 1.88 7.453 7.453-7.453 7.453 1.88 1.88 7.453-7.453 7.453 7.453 1.88-1.88-7.453-7.453z"></path>
</symbol>
<symbol id="ic_ticket" viewBox="0 0 46 32">
<path d="M5.155 0h-5.155v30.933h5.155v-30.933zM18.123 0h-5.157v30.933h5.157v-30.933zM25.934 0h-5.155v30.933h5.155v-30.933zM46.4 0h-7.656v30.933h7.656v-30.933zM10.31 0h-2.499v30.933h2.499v-30.933zM30.933 0h-2.499v30.933h2.499v-30.933zM36.088 0h-2.499v30.933h2.501v-30.933z"></path>
</symbol>
<symbol id="icon-location2" viewBox="0 0 32 32">
<path d="M16 0c-5.523 0-10 4.477-10 10 0 10 10 22 10 22s10-12 10-22c0-5.523-4.477-10-10-10zM16 16.125c-3.383 0-6.125-2.742-6.125-6.125s2.742-6.125 6.125-6.125 6.125 2.742 6.125 6.125-2.742 6.125-6.125 6.125zM12.125 10c0-2.14 1.735-3.875 3.875-3.875s3.875 1.735 3.875 3.875c0 2.14-1.735 3.875-3.875 3.875s-3.875-1.735-3.875-3.875z"></path>
</symbol>
</defs>
</svg>
